<svg width="32" height="32" viewBox="0 0 32 32" fill="none" xmlns="http://www.w3.org/2000/svg">
<rect width="32" height="32" rx="5" fill="#EBEBEB"/>
<path fill-rule="evenodd" clip-rule="evenodd" d="M9.4463 9.56311C8.99386 9.56311 8.62708 9.92989 8.62708 10.3823V23.4899C8.62708 23.9423 8.99386 24.3091 9.4463 24.3091H22.5539C23.0063 24.3091 23.3731 23.9423 23.3731 23.4899V10.3823C23.3731 9.92989 23.0063 9.56311 22.5539 9.56311H9.4463ZM6.52051 10.3823C6.52051 8.76646 7.83043 7.45654 9.4463 7.45654H22.5539C24.1697 7.45654 25.4796 8.76646 25.4796 10.3823V23.4899C25.4796 25.1058 24.1697 26.4157 22.5539 26.4157H9.4463C7.83043 26.4157 6.52051 25.1058 6.52051 23.4899V10.3823Z" fill="#B1B1B1"/>
<path fill-rule="evenodd" clip-rule="evenodd" d="M19.7452 5.58398C20.3269 5.58398 20.7985 6.05556 20.7985 6.63727V10.3823C20.7985 10.964 20.3269 11.4356 19.7452 11.4356C19.1635 11.4356 18.6919 10.964 18.6919 10.3823V6.63727C18.6919 6.05556 19.1635 5.58398 19.7452 5.58398Z" fill="#B1B1B1"/>
<path fill-rule="evenodd" clip-rule="evenodd" d="M12.2549 5.58398C12.8367 5.58398 13.3082 6.05556 13.3082 6.63727V10.3823C13.3082 10.964 12.8367 11.4356 12.2549 11.4356C11.6732 11.4356 11.2017 10.964 11.2017 10.3823V6.63727C11.2017 6.05556 11.6732 5.58398 12.2549 5.58398Z" fill="#B1B1B1"/>
<path fill-rule="evenodd" clip-rule="evenodd" d="M6.52051 14.1275C6.52051 13.5458 6.99208 13.0742 7.57379 13.0742H24.4264C25.0081 13.0742 25.4796 13.5458 25.4796 14.1275C25.4796 14.7092 25.0081 15.1808 24.4264 15.1808H7.57379C6.99208 15.1808 6.52051 14.7092 6.52051 14.1275Z" fill="#B1B1B1"/>
</svg>
