<svg width="738" height="189" viewBox="0 0 738 189" fill="none" xmlns="http://www.w3.org/2000/svg">
<path d="M249.764 109.859C249.764 114.751 245.735 118.78 240.843 118.78H178.105C174.94 118.78 172.062 117.917 169.184 116.478C166.306 115.039 164.004 112.737 161.989 110.146C159.975 107.556 158.248 104.391 157.097 100.649C155.946 96.9083 155.37 93.167 155.37 89.138V66.1151C155.37 62.0861 155.946 58.0571 157.097 54.6037C158.248 50.8625 159.975 47.9846 161.989 45.1067C164.004 42.5167 166.594 40.2144 169.184 38.7754C172.062 37.3365 174.94 36.4731 178.105 36.4731H240.843C245.735 36.4731 249.764 40.5022 249.764 45.3945C249.764 50.2869 245.735 54.3159 240.843 54.3159H178.105C175.515 54.3159 173.501 55.467 171.774 57.7693C170.047 60.0716 169.184 62.6617 169.184 65.8273V88.8502C169.184 92.0159 170.047 94.8938 171.774 96.9083C173.501 99.2106 175.515 100.362 178.105 100.362H240.843C245.735 100.937 249.764 104.966 249.764 109.859Z" fill="#606262"/>
<path d="M330.631 107.844V111.873C330.631 115.615 327.465 118.78 323.724 118.78H277.678C274.513 118.78 271.635 117.917 268.757 116.478C265.879 115.039 263.577 112.737 261.562 110.147C259.548 107.557 257.821 104.391 256.67 100.65C255.519 96.9086 254.943 93.1673 254.943 89.1383V43.6681C254.943 39.9269 258.109 36.7612 261.85 36.7612C265.591 36.7612 268.757 39.9269 268.757 43.6681V89.4261C268.757 92.5918 269.62 95.4696 271.347 97.4841C273.074 99.7864 275.088 100.938 277.678 100.938H323.724C327.178 100.938 330.631 104.103 330.631 107.844Z" fill="#606262"/>
<path d="M345.308 119.068H344.444C340.991 119.068 337.825 116.19 337.825 112.449V43.3803C337.825 39.9269 340.703 36.7612 344.444 36.7612H345.308C348.761 36.7612 351.927 39.6391 351.927 43.3803V112.737C352.214 116.19 349.337 119.068 345.308 119.068Z" fill="#606262"/>
<path d="M366.03 119.068C362.289 119.068 359.123 115.903 359.123 112.162V46.2585C359.123 43.6685 359.699 41.0784 360.85 39.0639C362.001 37.0494 363.44 35.6104 365.167 34.7471C366.893 33.8837 368.62 33.8837 370.634 34.1715C372.649 34.7471 374.088 35.8982 375.527 37.9127L414.378 95.7578C415.817 97.7723 418.695 97.7723 420.134 95.7578L458.985 37.9127C460.424 35.8982 462.151 34.4593 463.877 34.1715C465.892 33.5959 467.618 33.8837 469.345 34.7471C471.072 35.6104 472.511 37.0494 473.662 39.0639C474.813 41.0784 475.389 43.3807 475.389 46.2585V111.874C475.389 115.615 472.223 118.781 468.482 118.781C464.741 118.781 461.575 115.615 461.575 111.874V65.5402C461.575 64.3891 460.136 63.8135 459.56 64.9646L424.451 117.054C423.587 118.493 422.436 119.644 421.285 120.22C420.134 120.795 418.695 121.371 417.544 121.371C416.393 121.371 414.954 121.083 413.802 120.22C412.651 119.644 411.5 118.493 410.637 117.054L375.527 64.9646C374.951 64.1013 373.225 64.3891 373.225 65.5402V111.874C373.225 115.903 369.771 119.068 366.03 119.068Z" fill="#606262"/>
<path d="M555.393 114.464L529.78 65.2523C528.341 62.3745 523.737 62.3745 522.298 65.2523L496.973 114.176C495.534 116.766 492.944 118.205 490.066 118.205H488.627C482.871 118.205 479.13 112.449 481.72 107.557L519.132 39.6394C520.571 37.3371 523.161 35.6104 526.039 35.6104C528.917 35.6104 531.507 37.0493 532.946 39.6394L570.07 107.557C572.66 112.449 568.919 118.205 563.163 118.205H562.3C559.71 118.781 556.832 117.054 555.393 114.464Z" fill="#606060"/>
<path d="M562.298 36.7612H629.64C633.956 36.7612 637.41 40.2147 637.41 44.5315V47.1215C637.41 51.4383 633.956 54.8918 629.64 54.8918H608.056C605.753 54.8918 603.739 56.9063 603.739 59.2086V111.298C603.739 115.615 600.285 119.068 595.969 119.068C591.652 119.068 588.198 115.615 588.198 111.298V59.2086C588.198 56.9063 586.184 54.8918 583.882 54.8918H562.298C557.981 54.8918 554.527 51.4383 554.527 47.1215V44.5315C554.527 40.2147 558.269 36.7612 562.298 36.7612Z" fill="#606262"/>
<path d="M728.354 100.65H661.875V86.5482H712.526C717.418 86.5482 721.735 82.5192 721.735 77.339C721.735 72.4467 717.706 68.1299 712.526 68.1299H654.105C649.5 68.1299 645.471 71.5833 645.184 76.1879V110.434C645.184 115.039 648.925 118.492 653.242 118.492H661.875H728.354C733.246 118.492 737.563 114.463 737.563 109.283C737.275 104.967 733.534 100.65 728.354 100.65Z" fill="#606262"/>
<path d="M728.353 36.4731H653.817C648.924 36.4731 644.607 40.5022 644.607 45.6823V54.8915H728.065C732.958 54.8915 737.275 50.8625 737.275 45.6823C737.275 40.5022 733.533 36.4731 728.353 36.4731Z" fill="#606262"/>
<path d="M99.8265 1.93896C91.7685 1.93896 85.1494 8.55805 85.1494 16.6161V172.308C85.1494 180.366 91.7685 186.986 99.8265 186.986C107.885 186.986 114.504 180.366 114.504 172.308V16.6161C114.504 8.55805 107.885 1.93896 99.8265 1.93896ZM109.611 172.308C109.611 177.776 105.294 182.093 99.8265 182.093C94.3586 182.093 90.0418 177.776 90.0418 172.308V16.6161C90.0418 11.1481 94.3586 6.83133 99.8265 6.83133C105.294 6.83133 109.611 11.1481 109.611 16.6161V172.308Z" fill="white"/>
<path d="M109.611 16.6168V172.309C109.611 177.777 105.295 182.094 99.8267 182.094C94.3588 182.094 90.042 177.777 90.042 172.309V16.6168C90.042 11.1488 94.3588 6.83203 99.8267 6.83203C105.295 6.83203 109.611 11.1488 109.611 16.6168Z" fill="#FCB615"/>
<path d="M149.325 103.815C146.735 101.225 142.993 99.498 138.964 99.498H15.2162C7.15815 99.498 0.539062 106.117 0.539062 114.175C0.539062 118.204 2.26578 121.945 4.85586 124.535C7.44593 127.126 11.1872 128.852 15.2162 128.852H138.964C147.022 128.852 153.641 122.233 153.641 114.175C153.641 110.146 152.202 106.405 149.325 103.815ZM139.252 123.96H15.5039C10.036 123.96 5.71921 119.643 5.71921 114.175C5.71921 108.707 10.036 104.39 15.5039 104.39H139.252C144.72 104.39 149.037 108.707 149.037 114.175C149.037 119.643 144.72 123.96 139.252 123.96Z" fill="white"/>
<path d="M149.036 114.174C149.036 119.642 144.72 123.959 139.252 123.959H15.5035C10.0355 123.959 5.71875 119.642 5.71875 114.174C5.71875 108.707 10.0355 104.39 15.5035 104.39H139.252C144.72 104.102 149.036 108.707 149.036 114.174Z" fill="#8FBB3E"/>
<path d="M110.474 4.52961C109.035 3.37846 107.596 2.5151 105.87 1.93953C104.143 1.36396 102.416 1.07617 100.977 1.07617C96.9483 1.07617 92.9193 2.80289 90.0414 6.25632L4.28109 104.679C-0.89906 110.723 -0.323487 119.932 5.72002 125.4C7.15896 126.551 8.59789 127.414 10.3246 127.99C12.0513 128.565 13.778 128.853 15.217 128.853C19.246 128.853 23.275 127.127 26.1529 123.673L111.913 24.9624C117.381 18.9189 116.518 9.70976 110.474 4.52961ZM15.217 123.961C12.9147 123.961 10.6124 123.098 8.88567 121.659C6.87117 119.932 5.72002 117.63 5.43224 115.04C5.14445 112.449 6.00781 109.859 7.73453 107.845L93.4948 9.13419C95.5093 6.8319 98.0994 5.68075 100.977 5.68075C103.28 5.68075 105.582 6.54411 107.309 7.98304C111.338 11.4365 111.913 17.7678 108.172 21.7968L22.6994 120.795C20.9727 122.81 18.0948 123.961 15.217 123.961Z" fill="white"/>
<path d="M108.461 22.085L22.7006 120.796C20.9739 122.81 18.096 123.961 15.2182 123.961C12.9159 123.961 10.6136 123.098 8.88688 121.659C6.87238 119.932 5.72123 117.63 5.43344 115.04C5.14566 112.45 6.00902 109.86 7.73574 107.845L93.496 9.13459C95.5105 6.8323 98.1006 5.68115 100.978 5.68115C103.281 5.68115 105.583 6.54451 107.31 7.98344C111.627 11.7247 111.914 17.7682 108.461 22.085Z" fill="#32A1DA"/>
<path d="M109.034 0.5C100.976 0.5 94.3564 7.11909 94.3564 15.1771V174.323C94.3564 182.381 100.976 189 109.034 189C117.092 189 123.711 182.381 123.711 174.323V15.1771C123.711 7.11909 117.092 0.5 109.034 0.5ZM119.106 174.323C119.106 179.791 114.789 184.108 109.321 184.108C103.853 184.108 99.5366 179.791 99.5366 174.323V15.1771C99.5366 9.70916 103.853 5.39237 109.321 5.39237C114.789 5.39237 119.106 9.70916 119.106 15.1771V174.323Z" fill="white"/>
<path d="M119.106 15.1778V174.324C119.106 179.792 114.789 184.108 109.321 184.108C103.853 184.108 99.5361 179.792 99.5361 174.324V15.1778C99.5361 9.70986 103.853 5.39307 109.321 5.39307C114.501 5.39307 119.106 9.70986 119.106 15.1778Z" fill="#EF4F23"/>
</svg>
