<svg width="32" height="32" viewBox="0 0 32 32" fill="none" xmlns="http://www.w3.org/2000/svg">
<rect width="32" height="32" rx="5" fill="#EBEBEB"/>
<path d="M14.2632 16.3774C14.2632 17.6847 13.9663 18.729 13.3726 19.5103C12.7788 20.2863 11.9819 20.6743 10.9819 20.6743C10.0549 20.6743 9.31266 20.3696 8.75537 19.7603V23.7681H6.85693V12.0649H8.60693L8.68506 12.9243C9.24235 12.2472 10.0002 11.9087 10.9585 11.9087C11.9897 11.9087 12.797 12.2941 13.3804 13.0649C13.9689 13.8306 14.2632 14.8957 14.2632 16.2603V16.3774ZM12.3726 16.2134C12.3726 15.3696 12.2033 14.7004 11.8647 14.2056C11.5314 13.7108 11.0522 13.4634 10.4272 13.4634C9.6512 13.4634 9.09391 13.7837 8.75537 14.4243V18.1743C9.09912 18.8306 9.66162 19.1587 10.4429 19.1587C11.047 19.1587 11.5184 18.9165 11.8569 18.4321C12.2007 17.9425 12.3726 17.203 12.3726 16.2134Z" fill="#B1B1B1"/>
<path d="M25.0913 20.5181H23.1226V15.4634H18.0366V20.5181H16.0601V9.14307H18.0366V13.8774H23.1226V9.14307H25.0913V20.5181Z" fill="#B1B1B1"/>
</svg>
