<svg width="32" height="32" viewBox="0 0 32 32" fill="none" xmlns="http://www.w3.org/2000/svg">
<rect width="32" height="32" rx="5" fill="#EBEBEB"/>
<path d="M11.4272 7.64234C12.2556 7.64234 12.9272 8.31391 12.9272 9.14234V11.3055C12.9272 12.1339 12.2556 12.8055 11.4272 12.8055H9.13161C8.30318 12.8055 7.63161 12.1339 7.63161 11.3055V9.14234C7.63161 8.31391 8.30318 7.64234 9.13161 7.64234H11.4272ZM15.0518 7.0708C15.0518 6.24237 14.3803 5.5708 13.5518 5.5708H7.03955C6.21113 5.5708 5.53955 6.24237 5.53955 7.0708V13.3453C5.53955 14.1737 6.21112 14.8453 7.03955 14.8453H13.5518C14.3803 14.8453 15.0518 14.1737 15.0518 13.3453V7.0708Z" fill="#B1B1B1"/>
<path d="M10.8811 8.66211H9.71045C9.15816 8.66211 8.71045 9.10982 8.71045 9.66211V10.7535C8.71045 11.3058 9.15816 11.7535 9.71045 11.7535H10.8811C11.4334 11.7535 11.8811 11.3058 11.8811 10.7535V9.66211C11.8811 9.10982 11.4334 8.66211 10.8811 8.66211Z" fill="#B1B1B1"/>
<path d="M18.8438 16.7261H16.9478V18.5747H18.8438V16.7261Z" fill="#B1B1B1"/>
<path d="M17.9195 16.7261H17.8721C17.3616 16.7261 16.9478 17.1399 16.9478 17.6504C16.9478 18.1609 17.3616 18.5747 17.8721 18.5747H17.9195C18.43 18.5747 18.8438 18.1609 18.8438 17.6504C18.8438 17.1399 18.43 16.7261 17.9195 16.7261Z" fill="#B1B1B1"/>
<path d="M22.6358 16.7261H20.7397V18.5747H22.6358V16.7261Z" fill="#B1B1B1"/>
<path d="M26.4278 16.7261H24.5317V18.5747H26.4278V16.7261Z" fill="#B1B1B1"/>
<path d="M20.7398 18.5742H18.8438V20.4228H20.7398V18.5742Z" fill="#B1B1B1"/>
<path d="M24.5318 18.5742H22.6357V20.4228H24.5318V18.5742Z" fill="#B1B1B1"/>
<path d="M18.8438 20.4229H16.9478V22.2715H18.8438V20.4229Z" fill="#B1B1B1"/>
<path d="M18.8438 20.4229H16.9478V22.2715H18.8438V20.4229Z" fill="#B1B1B1"/>
<path d="M22.6358 20.4229H20.7397V22.2715H22.6358V20.4229Z" fill="#B1B1B1"/>
<path d="M26.4278 20.4229H24.5317V22.2715H26.4278V20.4229Z" fill="#B1B1B1"/>
<path d="M20.7398 22.2715H18.8438V24.1201H20.7398V22.2715Z" fill="#B1B1B1"/>
<path d="M24.5318 22.2715H22.6357V24.1201H24.5318V22.2715Z" fill="#B1B1B1"/>
<path d="M18.8438 24.1196H16.9478V25.9683H18.8438V24.1196Z" fill="#B1B1B1"/>
<path d="M18.8438 24.1196H16.9478V25.9683H18.8438V24.1196Z" fill="#B1B1B1"/>
<path d="M22.6358 24.1196H20.7397V25.9683H22.6358V24.1196Z" fill="#B1B1B1"/>
<path d="M26.4278 24.1196H24.5317V25.9683H26.4278V24.1196Z" fill="#B1B1B1"/>
<path d="M11.4272 18.7658C12.2556 18.7658 12.9272 19.4374 12.9272 20.2658V22.429C12.9272 23.2574 12.2556 23.929 11.4272 23.929H9.13161C8.30318 23.929 7.63161 23.2574 7.63161 22.429V20.2658C7.63161 19.4374 8.30318 18.7658 9.13161 18.7658H11.4272ZM15.0518 18.2261C15.0518 17.3976 14.3803 16.7261 13.5518 16.7261H7.03955C6.21113 16.7261 5.53955 17.3976 5.53955 18.2261V24.5005C5.53955 25.329 6.21112 26.0005 7.03955 26.0005H13.5518C14.3803 26.0005 15.0518 25.329 15.0518 24.5005V18.2261Z" fill="#B1B1B1"/>
<path d="M10.8811 19.8169H9.71045C9.15816 19.8169 8.71045 20.2646 8.71045 20.8169V21.9083C8.71045 22.4606 9.15816 22.9083 9.71045 22.9083H10.8811C11.4334 22.9083 11.8811 22.4606 11.8811 21.9083V20.8169C11.8811 20.2646 11.4334 19.8169 10.8811 19.8169Z" fill="#B1B1B1"/>
<path d="M22.8351 7.64234C23.6636 7.64234 24.3351 8.31391 24.3351 9.14234V11.3055C24.3351 12.1339 23.6636 12.8055 22.8351 12.8055H20.5398C19.7114 12.8055 19.0398 12.1339 19.0398 11.3055V9.14234C19.0398 8.31391 19.7114 7.64234 20.5398 7.64234H22.8351ZM26.46 7.0708C26.46 6.24237 25.7885 5.5708 24.96 5.5708H18.4478C17.6193 5.5708 16.9478 6.24237 16.9478 7.0708V13.3453C16.9478 14.1737 17.6193 14.8453 18.4478 14.8453H24.96C25.7885 14.8453 26.46 14.1737 26.46 13.3453V7.0708Z" fill="#B1B1B1"/>
</svg>
