<svg width="32" height="32" viewBox="0 0 32 32" fill="none" xmlns="http://www.w3.org/2000/svg">
<rect width="32" height="32" rx="5" fill="#EBEBEB"/>
<path d="M17.1993 20.9235L17.112 20.3202L15.9782 12.6157L14.8879 20.3202L14.8007 20.9235C14.8007 21.0097 14.7571 21.0959 14.7571 21.1821C14.7571 21.6131 14.9751 22.001 15.2804 22.2165C15.4985 22.3458 15.7165 22.4319 15.9782 22.4319C16.2398 22.4319 16.4579 22.3458 16.6759 22.2165C16.9812 22.001 17.1993 21.6131 17.1993 21.1821C17.2429 21.0959 17.2429 21.0097 17.1993 20.9235Z" fill="#B1B1B1"/>
<path d="M26.3456 19.913C26.3456 14.1993 21.7137 9.56738 16 9.56738C10.2862 9.56738 5.6543 14.1993 5.6543 19.913" stroke="#B1B1B1" stroke-width="2.5" stroke-linecap="round" stroke-linejoin="round"/>
<path d="M11.0195 12.3541L9.7666 10.1841" stroke="#EBEBEB"/>
<path d="M20.9805 12.3541L22.2334 10.1841" stroke="#EBEBEB"/>
</svg>
