<svg width="361" height="156" viewBox="0 0 361 156" fill="none" xmlns="http://www.w3.org/2000/svg">
<rect x="0.47998" width="360" height="156" rx="5" fill="#FFEEE7"/>
<g filter="url(#filter0_d)">
<rect x="50.9316" y="32.9663" width="141.597" height="51.0824" rx="3" fill="white"/>
</g>
<path d="M107.998 58.9225C107.998 60.0664 107.738 60.9801 107.219 61.6637C106.699 62.3428 106.002 62.6823 105.127 62.6823C104.316 62.6823 103.666 62.4157 103.179 61.8825V65.3893H101.518V55.1491H103.049L103.117 55.901C103.605 55.3086 104.268 55.0124 105.106 55.0124C106.009 55.0124 106.715 55.3496 107.226 56.0241C107.741 56.694 107.998 57.626 107.998 58.82V58.9225ZM106.344 58.779C106.344 58.0407 106.196 57.4551 105.899 57.0221C105.608 56.5892 105.188 56.3727 104.642 56.3727C103.963 56.3727 103.475 56.653 103.179 57.2135V60.4948C103.479 61.069 103.972 61.3561 104.655 61.3561C105.184 61.3561 105.596 61.1442 105.893 60.7204C106.193 60.292 106.344 59.6448 106.344 58.779ZM117.473 62.5456H115.75V58.1227H111.3V62.5456H109.57V52.5924H111.3V56.735H115.75V52.5924H117.473V62.5456ZM128.212 59.9821C128.212 59.5446 128.057 59.2073 127.747 58.9704C127.442 58.7334 126.888 58.4941 126.086 58.2526C125.284 58.0111 124.646 57.7422 124.172 57.446C123.265 56.8763 122.812 56.1335 122.812 55.2174C122.812 54.4154 123.137 53.7545 123.789 53.235C124.445 52.7155 125.295 52.4557 126.339 52.4557C127.032 52.4557 127.649 52.5833 128.191 52.8385C128.734 53.0937 129.16 53.4583 129.47 53.9323C129.78 54.4017 129.935 54.9235 129.935 55.4977H128.212C128.212 54.9782 128.048 54.5726 127.72 54.2809C127.396 53.9847 126.931 53.8366 126.325 53.8366C125.76 53.8366 125.32 53.9573 125.006 54.1989C124.696 54.4404 124.541 54.7777 124.541 55.2106C124.541 55.5752 124.71 55.8805 125.047 56.1266C125.384 56.3682 125.94 56.6051 126.715 56.8376C127.49 57.0654 128.112 57.3275 128.581 57.6237C129.05 57.9154 129.395 58.2526 129.613 58.6354C129.832 59.0137 129.941 59.458 129.941 59.9684C129.941 60.7978 129.622 61.4586 128.984 61.9508C128.351 62.4385 127.49 62.6823 126.4 62.6823C125.68 62.6823 125.017 62.5501 124.411 62.2858C123.81 62.0169 123.34 61.6478 123.003 61.1784C122.67 60.709 122.504 60.1621 122.504 59.5378H124.233C124.233 60.1029 124.42 60.5404 124.794 60.8503C125.168 61.1601 125.703 61.3151 126.4 61.3151C127.002 61.3151 127.453 61.1943 127.754 60.9528C128.059 60.7067 128.212 60.3831 128.212 59.9821ZM134.556 62.6823C133.503 62.6823 132.648 62.3519 131.992 61.6911C131.34 61.0257 131.015 60.1416 131.015 59.0387V58.8336C131.015 58.0954 131.156 57.4368 131.438 56.8581C131.726 56.2747 132.127 55.8213 132.642 55.4977C133.157 55.1741 133.731 55.0124 134.364 55.0124C135.371 55.0124 136.148 55.3336 136.695 55.9762C137.247 56.6188 137.522 57.528 137.522 58.7038V59.3737H132.689C132.74 59.9844 132.942 60.4674 133.298 60.8229C133.658 61.1784 134.109 61.3561 134.651 61.3561C135.412 61.3561 136.032 61.0485 136.511 60.4333L137.406 61.2878C137.11 61.7298 136.714 62.0739 136.217 62.32C135.725 62.5615 135.171 62.6823 134.556 62.6823ZM134.357 56.3454C133.902 56.3454 133.533 56.5049 133.25 56.8239C132.972 57.1429 132.794 57.5872 132.717 58.1569H135.882V58.0338C135.845 57.4779 135.697 57.0586 135.438 56.776C135.178 56.4889 134.818 56.3454 134.357 56.3454ZM140.359 55.1491L140.407 56.0036C140.954 55.3428 141.672 55.0124 142.561 55.0124C144.101 55.0124 144.885 55.8942 144.912 57.6579V62.5456H143.251V57.7536C143.251 57.2842 143.148 56.9378 142.943 56.7145C142.743 56.4866 142.412 56.3727 141.952 56.3727C141.282 56.3727 140.783 56.6758 140.455 57.2819V62.5456H138.794V55.1491H140.359ZM150.757 60.5358C150.757 60.2396 150.634 60.014 150.388 59.859C150.146 59.7041 149.743 59.5674 149.178 59.4489C148.613 59.3304 148.141 59.18 147.763 58.9977C146.933 58.5967 146.519 58.0156 146.519 57.2545C146.519 56.6165 146.787 56.0833 147.325 55.6549C147.863 55.2266 148.547 55.0124 149.376 55.0124C150.26 55.0124 150.973 55.2311 151.516 55.6686C152.062 56.1061 152.336 56.6735 152.336 57.3708H150.675C150.675 57.0517 150.556 56.7874 150.319 56.5778C150.082 56.3636 149.768 56.2565 149.376 56.2565C149.011 56.2565 148.713 56.3408 148.48 56.5094C148.253 56.678 148.139 56.9036 148.139 57.1862C148.139 57.4414 148.246 57.6396 148.46 57.7809C148.674 57.9222 149.107 58.0657 149.759 58.2116C150.41 58.3529 150.921 58.5238 151.29 58.7243C151.664 58.9202 151.939 59.1572 152.117 59.4352C152.299 59.7132 152.391 60.0504 152.391 60.4469C152.391 61.1123 152.115 61.6523 151.563 62.067C151.012 62.4772 150.29 62.6823 149.396 62.6823C148.79 62.6823 148.25 62.5729 147.776 62.3542C147.302 62.1354 146.933 61.8346 146.669 61.4518C146.405 61.069 146.272 60.6566 146.272 60.2145H147.886C147.909 60.6064 148.057 60.9095 148.33 61.1237C148.604 61.3333 148.966 61.4381 149.417 61.4381C149.854 61.4381 150.187 61.3561 150.415 61.192C150.643 61.0234 150.757 60.8047 150.757 60.5358ZM153.532 58.779C153.532 58.0544 153.676 57.4027 153.963 56.8239C154.25 56.2405 154.653 55.7939 155.173 55.484C155.692 55.1696 156.289 55.0124 156.964 55.0124C157.962 55.0124 158.771 55.3336 159.391 55.9762C160.015 56.6188 160.352 57.471 160.402 58.5329L160.409 58.9225C160.409 59.6517 160.268 60.3034 159.985 60.8776C159.707 61.4518 159.306 61.8961 158.782 62.2106C158.263 62.5251 157.661 62.6823 156.978 62.6823C155.934 62.6823 155.098 62.3359 154.469 61.6432C153.844 60.946 153.532 60.0185 153.532 58.861V58.779ZM155.193 58.9225C155.193 59.6836 155.351 60.2806 155.665 60.7135C155.979 61.1419 156.417 61.3561 156.978 61.3561C157.538 61.3561 157.973 61.1374 158.283 60.6999C158.598 60.2624 158.755 59.6221 158.755 58.779C158.755 58.0316 158.593 57.4391 158.27 57.0016C157.951 56.5641 157.515 56.3454 156.964 56.3454C156.422 56.3454 155.991 56.5618 155.672 56.9948C155.353 57.4232 155.193 58.0657 155.193 58.9225ZM165.687 56.6667C165.468 56.6302 165.242 56.612 165.01 56.612C164.249 56.612 163.736 56.9036 163.472 57.487V62.5456H161.811V55.1491H163.396L163.438 55.9762C163.839 55.3336 164.395 55.0124 165.105 55.0124C165.342 55.0124 165.538 55.0443 165.693 55.1081L165.687 56.6667ZM174.614 62.5456H172.96V54.5544L170.52 55.3883V53.987L174.402 52.5583H174.614V62.5456Z" fill="#3A3A3A"/>
<rect x="63.0303" y="45.0648" width="26.9869" height="26.8855" rx="5" fill="#FBD3C8" fill-opacity="0.5"/>
<path d="M75.1109 58.8032C75.1109 59.8283 74.8781 60.6472 74.4125 61.2598C73.9469 61.8684 73.322 62.1726 72.5379 62.1726C71.8109 62.1726 71.2289 61.9337 70.7919 61.4559V64.5986H69.3032V55.4215H70.6755L70.7368 56.0954C71.1738 55.5644 71.768 55.299 72.5195 55.299C73.3282 55.299 73.9612 55.6012 74.4186 56.2057C74.8802 56.806 75.1109 57.6412 75.1109 58.7113V58.8032ZM73.6284 58.6745C73.6284 58.0129 73.4956 57.4881 73.2302 57.1001C72.9688 56.7121 72.593 56.5181 72.1029 56.5181C71.4944 56.5181 71.0574 56.7693 70.7919 57.2716V60.2122C71.0615 60.7268 71.5025 60.9841 72.1152 60.9841C72.5889 60.9841 72.9586 60.7942 73.224 60.4144C73.4936 60.0305 73.6284 59.4505 73.6284 58.6745Z" fill="#EF4F23"/>
<path d="M83.6019 62.0501H82.0581V58.0864H78.0699V62.0501H76.5199V53.1303H78.0699V56.8428H82.0581V53.1303H83.6019V62.0501Z" fill="#EF4F23"/>
<g filter="url(#filter1_d)">
<rect x="168.432" y="71.9507" width="141.597" height="51.0824" rx="3" fill="white"/>
</g>
<path d="M225.497 97.907C225.497 99.0509 225.237 99.9647 224.718 100.648C224.198 101.327 223.501 101.667 222.626 101.667C221.815 101.667 221.165 101.4 220.678 100.867V104.374H219.017V94.1336H220.548L220.616 94.8856C221.104 94.2931 221.767 93.9969 222.605 93.9969C223.508 93.9969 224.214 94.3341 224.725 95.0086C225.24 95.6785 225.497 96.6105 225.497 97.8045V97.907ZM223.843 97.7635C223.843 97.0252 223.695 96.4396 223.398 96.0067C223.107 95.5737 222.688 95.3572 222.141 95.3572C221.462 95.3572 220.974 95.6375 220.678 96.1981V99.4793C220.979 100.054 221.471 100.341 222.154 100.341C222.683 100.341 223.095 100.129 223.392 99.7049C223.692 99.2765 223.843 98.6294 223.843 97.7635ZM234.972 101.53H233.249V97.1072H228.799V101.53H227.069V91.577H228.799V95.7195H233.249V91.577H234.972V101.53ZM245.711 98.9666C245.711 98.5291 245.556 98.1919 245.246 97.9549C244.941 97.7179 244.387 97.4787 243.585 97.2371C242.783 96.9956 242.145 96.7267 241.671 96.4305C240.764 95.8608 240.311 95.118 240.311 94.202C240.311 93.3999 240.636 92.7391 241.288 92.2195C241.944 91.7 242.794 91.4402 243.838 91.4402C244.531 91.4402 245.148 91.5679 245.69 91.8231C246.233 92.0783 246.659 92.4429 246.969 92.9168C247.279 93.3862 247.434 93.908 247.434 94.4822H245.711C245.711 93.9627 245.547 93.5571 245.219 93.2654C244.895 92.9692 244.43 92.8211 243.824 92.8211C243.259 92.8211 242.819 92.9419 242.505 93.1834C242.195 93.4249 242.04 93.7622 242.04 94.1951C242.04 94.5597 242.209 94.8651 242.546 95.1111C242.883 95.3527 243.439 95.5897 244.214 95.8221C244.989 96.0499 245.611 96.312 246.08 96.6082C246.549 96.8999 246.894 97.2371 247.112 97.6199C247.331 97.9982 247.44 98.4425 247.44 98.9529C247.44 99.7824 247.121 100.443 246.483 100.935C245.85 101.423 244.989 101.667 243.899 101.667C243.179 101.667 242.516 101.535 241.91 101.27C241.309 101.001 240.839 100.632 240.502 100.163C240.169 99.6935 240.003 99.1466 240.003 98.5223H241.732C241.732 99.0874 241.919 99.5249 242.293 99.8348C242.667 100.145 243.202 100.3 243.899 100.3C244.501 100.3 244.952 100.179 245.253 99.9373C245.558 99.6912 245.711 99.3677 245.711 98.9666ZM252.055 101.667C251.002 101.667 250.147 101.336 249.491 100.676C248.84 100.01 248.514 99.1261 248.514 98.0233V97.8182C248.514 97.0799 248.655 96.4214 248.938 95.8426C249.225 95.2593 249.626 94.8058 250.141 94.4822C250.656 94.1587 251.23 93.9969 251.863 93.9969C252.87 93.9969 253.647 94.3182 254.194 94.9608C254.746 95.6033 255.021 96.5125 255.021 97.6883V98.3582H250.188C250.239 98.9689 250.441 99.452 250.797 99.8074C251.157 100.163 251.608 100.341 252.15 100.341C252.911 100.341 253.531 100.033 254.01 99.4178L254.905 100.272C254.609 100.714 254.213 101.058 253.716 101.305C253.224 101.546 252.67 101.667 252.055 101.667ZM251.856 95.3299C251.401 95.3299 251.032 95.4894 250.749 95.8084C250.471 96.1274 250.293 96.5718 250.216 97.1414H253.381V97.0184C253.344 96.4624 253.196 96.0431 252.937 95.7606C252.677 95.4734 252.317 95.3299 251.856 95.3299ZM257.858 94.1336L257.906 94.9881C258.453 94.3273 259.171 93.9969 260.06 93.9969C261.6 93.9969 262.384 94.8787 262.411 96.6424V101.53H260.75V96.7381C260.75 96.2687 260.647 95.9223 260.442 95.699C260.242 95.4712 259.911 95.3572 259.451 95.3572C258.781 95.3572 258.282 95.6603 257.954 96.2664V101.53H256.293V94.1336H257.858ZM268.256 99.5203C268.256 99.2241 268.133 98.9985 267.887 98.8436C267.645 98.6886 267.242 98.5519 266.677 98.4334C266.112 98.3149 265.64 98.1645 265.262 97.9822C264.432 97.5812 264.018 97.0001 264.018 96.2391C264.018 95.6011 264.286 95.0679 264.824 94.6395C265.362 94.2111 266.046 93.9969 266.875 93.9969C267.759 93.9969 268.472 94.2156 269.015 94.6531C269.562 95.0906 269.835 95.658 269.835 96.3553H268.174C268.174 96.0363 268.055 95.772 267.818 95.5623C267.581 95.3481 267.267 95.241 266.875 95.241C266.51 95.241 266.212 95.3253 265.979 95.494C265.752 95.6626 265.638 95.8882 265.638 96.1707C265.638 96.4259 265.745 96.6242 265.959 96.7654C266.173 96.9067 266.606 97.0503 267.258 97.1961C267.91 97.3374 268.42 97.5083 268.789 97.7088C269.163 97.9048 269.438 98.1417 269.616 98.4197C269.799 98.6977 269.89 99.035 269.89 99.4315C269.89 100.097 269.614 100.637 269.062 101.052C268.511 101.462 267.789 101.667 266.896 101.667C266.289 101.667 265.749 101.557 265.275 101.339C264.801 101.12 264.432 100.819 264.168 100.436C263.904 100.054 263.771 99.6411 263.771 99.199H265.385C265.408 99.591 265.556 99.894 265.829 100.108C266.103 100.318 266.465 100.423 266.916 100.423C267.354 100.423 267.686 100.341 267.914 100.177C268.142 100.008 268.256 99.7892 268.256 99.5203ZM271.031 97.7635C271.031 97.0389 271.175 96.3872 271.462 95.8084C271.749 95.2251 272.152 94.7785 272.672 94.4686C273.191 94.1541 273.788 93.9969 274.463 93.9969C275.461 93.9969 276.27 94.3182 276.89 94.9608C277.514 95.6033 277.851 96.4555 277.901 97.5174L277.908 97.907C277.908 98.6362 277.767 99.2879 277.484 99.8621C277.206 100.436 276.805 100.881 276.281 101.195C275.762 101.51 275.16 101.667 274.477 101.667C273.433 101.667 272.597 101.32 271.968 100.628C271.343 99.9305 271.031 99.0031 271.031 97.8455V97.7635ZM272.692 97.907C272.692 98.6681 272.85 99.2651 273.164 99.6981C273.479 100.126 273.916 100.341 274.477 100.341C275.037 100.341 275.472 100.122 275.782 99.6844C276.097 99.2469 276.254 98.6066 276.254 97.7635C276.254 97.0161 276.092 96.4236 275.769 95.9861C275.45 95.5486 275.014 95.3299 274.463 95.3299C273.921 95.3299 273.49 95.5464 273.171 95.9793C272.852 96.4077 272.692 97.0503 272.692 97.907ZM283.186 95.6512C282.967 95.6147 282.741 95.5965 282.509 95.5965C281.748 95.5965 281.235 95.8882 280.971 96.4715V101.53H279.31V94.1336H280.896L280.937 94.9608C281.338 94.3182 281.894 93.9969 282.604 93.9969C282.841 93.9969 283.037 94.0288 283.192 94.0926L283.186 95.6512ZM294.308 101.53H287.615V100.388L290.931 96.7723C291.409 96.2391 291.749 95.7947 291.949 95.4393C292.154 95.0792 292.257 94.7192 292.257 94.3592C292.257 93.8852 292.122 93.5024 291.854 93.2108C291.589 92.9191 291.231 92.7733 290.78 92.7733C290.243 92.7733 289.826 92.9373 289.529 93.2654C289.233 93.5936 289.085 94.0425 289.085 94.6121H287.424C287.424 94.006 287.561 93.4614 287.834 92.9783C288.112 92.4907 288.506 92.1124 289.017 91.8436C289.532 91.5747 290.124 91.4402 290.794 91.4402C291.76 91.4402 292.521 91.6841 293.077 92.1717C293.638 92.6548 293.918 93.3247 293.918 94.1815C293.918 94.6782 293.777 95.2 293.494 95.7469C293.216 96.2892 292.758 96.9067 292.12 97.5994L289.687 100.204H294.308V101.53Z" fill="#3A3A3A"/>
<rect x="180.53" y="84.049" width="26.9869" height="26.8855" rx="5" fill="#CDEDFE"/>
<path d="M192.61 97.7877C192.61 98.8129 192.378 99.6317 191.912 100.244C191.446 100.853 190.822 101.157 190.037 101.157C189.31 101.157 188.728 100.918 188.291 100.44V103.583H186.803V94.4061H188.175L188.236 95.0799C188.673 94.549 189.268 94.2835 190.019 94.2835C190.828 94.2835 191.461 94.5858 191.918 95.1902C192.38 95.7906 192.61 96.6258 192.61 97.6959V97.7877ZM191.128 97.6591C191.128 96.9975 190.995 96.4726 190.73 96.0846C190.468 95.6967 190.093 95.5027 189.602 95.5027C188.994 95.5027 188.557 95.7538 188.291 96.2562V99.1968C188.561 99.7114 189.002 99.9687 189.615 99.9687C190.088 99.9687 190.458 99.7788 190.724 99.399C190.993 99.015 191.128 98.4351 191.128 97.6591Z" fill="#018CD5"/>
<path d="M201.101 101.035H199.558V97.071H195.569V101.035H194.019V92.1148H195.569V95.8273H199.558V92.1148H201.101V101.035Z" fill="#018CD5"/>
<defs>
<filter id="filter0_d" x="28.9316" y="12.9663" width="171.597" height="81.0824" filterUnits="userSpaceOnUse" color-interpolation-filters="sRGB">
<feFlood flood-opacity="0" result="BackgroundImageFix"/>
<feColorMatrix in="SourceAlpha" type="matrix" values="0 0 0 0 0 0 0 0 0 0 0 0 0 0 0 0 0 0 127 0"/>
<feMorphology radius="3" operator="dilate" in="SourceAlpha" result="effect1_dropShadow"/>
<feOffset dx="-7" dy="-5"/>
<feGaussianBlur stdDeviation="6"/>
<feColorMatrix type="matrix" values="0 0 0 0 0 0 0 0 0 0 0 0 0 0 0 0 0 0 0.05 0"/>
<feBlend mode="normal" in2="BackgroundImageFix" result="effect1_dropShadow"/>
<feBlend mode="normal" in="SourceGraphic" in2="effect1_dropShadow" result="shape"/>
</filter>
<filter id="filter1_d" x="146.432" y="51.9507" width="171.597" height="81.0824" filterUnits="userSpaceOnUse" color-interpolation-filters="sRGB">
<feFlood flood-opacity="0" result="BackgroundImageFix"/>
<feColorMatrix in="SourceAlpha" type="matrix" values="0 0 0 0 0 0 0 0 0 0 0 0 0 0 0 0 0 0 127 0"/>
<feMorphology radius="3" operator="dilate" in="SourceAlpha" result="effect1_dropShadow"/>
<feOffset dx="-7" dy="-5"/>
<feGaussianBlur stdDeviation="6"/>
<feColorMatrix type="matrix" values="0 0 0 0 0 0 0 0 0 0 0 0 0 0 0 0 0 0 0.05 0"/>
<feBlend mode="normal" in2="BackgroundImageFix" result="effect1_dropShadow"/>
<feBlend mode="normal" in="SourceGraphic" in2="effect1_dropShadow" result="shape"/>
</filter>
</defs>
</svg>
