<svg width="28" height="28" viewBox="0 0 28 28" fill="none" xmlns="http://www.w3.org/2000/svg">
<rect x="0.240234" width="27.2107" height="27.1084" rx="5" fill="#FFEEE7"/>
<path d="M12.4203 13.8528C12.4203 14.8864 12.1856 15.7121 11.7161 16.3298C11.2467 16.9433 10.6166 17.2501 9.82594 17.2501C9.09293 17.2501 8.50611 17.0092 8.06548 16.5274V19.6963H6.56445V10.443H7.94811L8.00988 11.1225C8.45051 10.5872 9.04969 10.3195 9.80741 10.3195C10.6228 10.3195 11.2611 10.6242 11.7223 11.2337C12.1876 11.839 12.4203 12.6812 12.4203 13.7601V13.8528ZM10.9255 13.723C10.9255 13.0559 10.7916 12.5268 10.5239 12.1355C10.2604 11.7443 9.88153 11.5487 9.38737 11.5487C8.77378 11.5487 8.33315 11.802 8.06548 12.3085V15.2735C8.33727 15.7924 8.78201 16.0518 9.39972 16.0518C9.87741 16.0518 10.2501 15.8603 10.5178 15.4773C10.7896 15.0902 10.9255 14.5055 10.9255 13.723Z" fill="#EF4F23"/>
<path d="M20.9817 17.1266H19.4251V13.13H15.4038V17.1266H13.841V8.13281H15.4038V11.8761H19.4251V8.13281H20.9817V17.1266Z" fill="#EF4F23"/>
</svg>
