<svg width="32" height="32" viewBox="0 0 32 32" fill="none" xmlns="http://www.w3.org/2000/svg">
<rect width="32" height="32" rx="5" fill="#EBEBEB"/>
<path d="M20.8627 17.3203L20.9396 17.7275H21.354H25.0288V18.4789H20.6559H20.6559C20.5798 18.4789 20.5038 18.4517 20.4412 18.3984C20.3782 18.3448 20.3323 18.2675 20.3155 18.1782L20.3155 18.1782L19.3586 13.1107L18.3807 13.0881L16.0783 22.8012C16.0783 22.8012 16.0782 22.8012 16.0782 22.8012C16.0585 22.8846 16.0134 22.956 15.9533 23.0059C15.8935 23.0556 15.8219 23.0819 15.7499 23.0837L15.7475 23.0838L15.7415 23.0839C15.7415 23.0839 15.7414 23.0839 15.7414 23.0839C15.6708 23.0839 15.6002 23.0604 15.5403 23.0142C15.48 22.9678 15.4331 22.9003 15.4099 22.8199L14.9295 22.9587L15.4099 22.8199L13.4529 16.0449L13.0369 14.6047L12.5051 16.0063L11.6554 18.2455C11.6554 18.2455 11.6554 18.2455 11.6554 18.2456C11.6279 18.3179 11.5809 18.3774 11.5233 18.418C11.4659 18.4584 11.3999 18.4789 11.3338 18.4789C11.3338 18.4789 11.3338 18.4789 11.3338 18.4789H6.96094V17.7275H10.7559H11.1009L11.2233 17.4049L12.7598 13.3561C12.7598 13.3561 12.7598 13.356 12.7598 13.356C12.7882 13.2811 12.8375 13.2201 12.8978 13.1794L12.6185 12.7647L12.8978 13.1794C12.9579 13.139 13.0268 13.12 13.0951 13.1229C13.1635 13.1259 13.2311 13.1508 13.2884 13.1969C13.346 13.2432 13.3906 13.3089 13.413 13.3867C13.413 13.3867 13.413 13.3867 13.413 13.3867L15.1807 19.5061L15.7087 21.3341L16.1476 19.4827L18.6244 9.03418L18.6244 9.03416C18.6449 8.94756 18.6927 8.87409 18.756 8.82398C18.819 8.77415 18.8941 8.74973 18.9688 8.75156C19.0436 8.7534 19.1178 8.78151 19.1789 8.83476L19.5075 8.45792L19.1789 8.83476C19.2403 8.88831 19.2848 8.96448 19.3014 9.05224L19.3014 9.05224L20.8627 17.3203ZM21.354 17.2275L19.7927 8.95947L21.354 17.2275ZM20.1171 18.7792C20.2688 18.9083 20.4593 18.9789 20.6559 18.9789L19.8242 18.271C19.8618 18.4703 19.9654 18.65 20.1171 18.7792Z" fill="#B1B1B1" stroke="#B1B1B1"/>
<path d="M7.33254 18.1041C7.33254 18.5876 6.9568 18.9796 6.4933 18.9796C6.0298 18.9796 5.65405 18.5876 5.65405 18.1041C5.65405 17.6205 6.0298 17.2285 6.4933 17.2285C6.9568 17.2285 7.33254 17.6205 7.33254 18.1041Z" fill="#B1B1B1"/>
<path d="M26.3457 18.1031C26.3457 18.5867 25.97 18.9787 25.5065 18.9787C25.043 18.9787 24.6672 18.5867 24.6672 18.1031C24.6672 17.6195 25.043 17.2275 25.5065 17.2275C25.97 17.2275 26.3457 17.6195 26.3457 18.1031Z" fill="#B1B1B1"/>
</svg>
